<?xml version="1.0" encoding="UTF-8" standalone="no"?>
<!-- Created with Inkscape (http://www.inkscape.org/) -->

<svg
   width="163.16843mm"
   height="52.255005mm"
   viewBox="0 0 163.16843 52.255005"
   version="1.1"
   id="svg5"
   xml:space="preserve"
   xmlns="http://www.w3.org/2000/svg"
   xmlns:svg="http://www.w3.org/2000/svg"><defs
     id="defs2"><rect
       x="257.84094"
       y="350.29907"
       width="423.22379"
       height="161.47617"
       id="rect238" /></defs><g
     id="layer1"
     transform="translate(-10.782735,-85.943189)"><text
       xml:space="preserve"
       transform="matrix(0.26458333,0,0,0.26458333,-7.2354989,-2.2522623)"
       id="text236"
       style="font-size:64px;white-space:pre;shape-inside:url(#rect238);shape-padding:0;display:inline;fill:#000000"><tspan
         x="257.8418"
         y="409.68549"
         id="tspan396"><tspan
           style="font-family:'Spline Sans Mono';-inkscape-font-specification:'Spline Sans Mono'"
           id="tspan394">Web
</tspan></tspan><tspan
         x="257.8418"
         y="490.68302"
         id="tspan400"><tspan
           style="font-family:'Spline Sans Mono';-inkscape-font-specification:'Spline Sans Mono'"
           id="tspan398">Experiment</tspan></tspan></text><path
       style="fill:#000000;fill-opacity:0;stroke:#000000;stroke-width:1.96984;stroke-miterlimit:4;stroke-dasharray:none;stroke-opacity:1;paint-order:fill markers stroke"
       d="m 11.767659,86.928105 h 90.068691 v 21.493475 h 71.12989 v 28.79168 H 11.767658 c 3.6e-5,-16.76172 2.3e-5,-33.52344 10e-7,-50.285155 z"
       id="path3531" /><path
       fill="none"
       stroke="currentColor"
       stroke-linecap="round"
       stroke-miterlimit="10"
       stroke-width="2.37188"
       d="M 31.731005,96.625345 H 43.590421 M 27.431972,115.6004 H 47.889456 M 34.102889,96.625345 v 6.928835 a 4.7504358,4.7504358 0 0 1 -0.732316,2.53347 l -9.258496,14.66344 c -1.838952,2.91224 0.253474,6.7087 3.69643,6.7087 H 47.51292 c 3.442939,0 5.535382,-3.79646 3.69643,-6.7087 l -9.259235,-14.66344 a 4.7504358,4.7504358 0 0 1 -0.731579,-2.53347 v -6.928835"
       id="path259" /></g></svg>
