<?xml version="1.0" encoding="UTF-8" standalone="no"?>
<!-- Created with Inkscape (http://www.inkscape.org/) -->

<svg
   width="159.02669mm"
   height="52.255005mm"
   viewBox="0 0 159.02669 52.255005"
   version="1.1"
   id="svg5"
   xml:space="preserve"
   inkscape:version="1.2.2 (732a01da63, 2022-12-09)"
   sodipodi:docname="web-experiment-logo.svg"
   xmlns:inkscape="http://www.inkscape.org/namespaces/inkscape"
   xmlns:sodipodi="http://sodipodi.sourceforge.net/DTD/sodipodi-0.dtd"
   xmlns="http://www.w3.org/2000/svg"
   xmlns:svg="http://www.w3.org/2000/svg"><sodipodi:namedview
     id="namedview7"
     pagecolor="#ffffff"
     bordercolor="#000000"
     borderopacity="0.25"
     inkscape:showpageshadow="2"
     inkscape:pageopacity="0.0"
     inkscape:pagecheckerboard="0"
     inkscape:deskcolor="#d1d1d1"
     inkscape:document-units="mm"
     showgrid="false"
     inkscape:zoom="2.1719923"
     inkscape:cx="347.14671"
     inkscape:cy="402.39552"
     inkscape:window-width="1920"
     inkscape:window-height="1017"
     inkscape:window-x="2488"
     inkscape:window-y="-8"
     inkscape:window-maximized="1"
     inkscape:current-layer="layer1"><inkscape:grid
       type="xygrid"
       id="grid3667" /></sodipodi:namedview><defs
     id="defs2"><rect
       x="257.84094"
       y="350.29907"
       width="423.22379"
       height="161.47617"
       id="rect238" /></defs><g
     inkscape:label="Calque 1"
     inkscape:groupmode="layer"
     id="layer1"
     transform="translate(-14.924479,-85.943189)"><text
       xml:space="preserve"
       transform="matrix(0.26458333,0,0,0.26458333,-7.2354989,-2.2522623)"
       id="text236"
       style="font-size:64px;white-space:pre;shape-inside:url(#rect238);shape-padding:0;display:inline;fill:#000000"
       inkscape:export-filename="web-experiment-logo-tagline-black.png"
       inkscape:export-xdpi="96"
       inkscape:export-ydpi="96"><tspan
         x="257.8418"
         y="409.68549"
         id="tspan3750"><tspan
           style="font-family:'Spline Sans Mono';-inkscape-font-specification:'Spline Sans Mono'"
           id="tspan3748">Web
</tspan></tspan><tspan
         x="257.8418"
         y="490.68302"
         id="tspan3754"><tspan
           style="font-family:'Spline Sans Mono';-inkscape-font-specification:'Spline Sans Mono'"
           id="tspan3752">Experiment</tspan></tspan></text><path
       d="m 44.471325,94.688851 v 3.457821 h -1.72891 v 5.606858 c 0,2.00208 0.433957,3.97822 1.272478,5.79531 l 7.403194,16.03737 c 0.599932,1.30187 0.03112,2.84233 -1.26902,3.44053 -0.340595,0.15906 -0.710582,0.24032 -1.085756,0.24032 H 26.048056 c -1.431538,0 -2.593365,-1.16183 -2.593365,-2.59337 0,-0.37517 0.08126,-0.74689 0.238589,-1.08748 l 7.403195,-16.03737 c 0.838521,-1.81536 1.272478,-3.79323 1.272478,-5.79531 v -5.606858 h -1.728911 v -3.457821 z m -4.515914,13.833009 h -4.799455 c -0.179807,0.6276 -0.397649,1.24655 -0.646612,1.85167 l -0.273168,0.62413 -6.837841,14.81158 h 20.312968 l -6.836111,-14.81158 c -0.369987,-0.80221 -0.677733,-1.63036 -0.919781,-2.4758 z m -4.128638,-4.76833 c 0,0.43741 -0.01729,0.87483 -0.05014,1.31051 h 3.558098 c -0.01729,-0.2092 -0.02766,-0.41839 -0.03631,-0.62932 l -0.01383,-0.68119 V 98.146672 H 35.82677 Z"
       id="path11"
       style="display:inline;fill:#000000;fill-opacity:1;stroke:#ffffff;stroke-width:1.2;stroke-miterlimit:4;stroke-dasharray:none;stroke-opacity:1;paint-order:fill markers stroke"
       inkscape:label="flask" /><path
       style="fill:#000000;fill-opacity:0;stroke:#000000;stroke-width:1.945;stroke-miterlimit:4;stroke-dasharray:none;stroke-opacity:1;paint-order:fill markers stroke"
       d="m 15.896983,86.915687 h 87.768397 v 21.504093 h 69.31328 v 28.8059 H 15.896982 c 3.5e-5,-16.77 2.3e-5,-33.54 1e-6,-50.309993 z"
       id="path3531"
       sodipodi:nodetypes="ccccccc" /></g></svg>
